<mxfile host="Electron" modified="2024-02-15T14:34:07.715Z" agent="Mozilla/5.0 (Windows NT 10.0; Win64; x64) AppleWebKit/537.36 (KHTML, like Gecko) draw.io/23.0.2 Chrome/120.0.6099.109 Electron/28.1.0 Safari/537.36" etag="PtkkEhTi8EkjkySKxWEz" version="23.0.2" type="device" pages="2">
  <diagram name="Page-1" id="lHYYtZzS8Uv63oqJ56ig">
    <mxGraphModel dx="880" dy="1632" grid="1" gridSize="10" guides="1" tooltips="1" connect="1" arrows="1" fold="1" page="1" pageScale="1" pageWidth="850" pageHeight="1100" math="0" shadow="0">
      <root>
        <mxCell id="0" />
        <mxCell id="1" parent="0" />
        <mxCell id="b3AIAaytcUliQ4qnKOfz-1" value="Number - M&lt;br&gt;Source Unit - M&lt;br&gt;Target Unit&amp;nbsp; - O" style="ellipse;whiteSpace=wrap;html=1;" vertex="1" parent="1">
          <mxGeometry x="110" y="240" width="120" height="80" as="geometry" />
        </mxCell>
        <mxCell id="b3AIAaytcUliQ4qnKOfz-2" value="Actor" style="shape=umlActor;verticalLabelPosition=bottom;verticalAlign=top;html=1;outlineConnect=0;" vertex="1" parent="1">
          <mxGeometry x="30" y="240" width="30" height="60" as="geometry" />
        </mxCell>
        <mxCell id="b3AIAaytcUliQ4qnKOfz-3" value="" style="endArrow=classic;html=1;rounded=0;" edge="1" parent="1">
          <mxGeometry width="50" height="50" relative="1" as="geometry">
            <mxPoint x="60" y="280" as="sourcePoint" />
            <mxPoint x="110" y="280" as="targetPoint" />
          </mxGeometry>
        </mxCell>
        <mxCell id="b3AIAaytcUliQ4qnKOfz-4" value="H2 db" style="shape=cylinder3;whiteSpace=wrap;html=1;boundedLbl=1;backgroundOutline=1;size=15;" vertex="1" parent="1">
          <mxGeometry x="140" y="360" width="60" height="80" as="geometry" />
        </mxCell>
        <mxCell id="b3AIAaytcUliQ4qnKOfz-5" value="" style="endArrow=classic;html=1;rounded=0;exitX=0.5;exitY=1;exitDx=0;exitDy=0;exitPerimeter=0;entryX=0.5;entryY=0;entryDx=0;entryDy=0;entryPerimeter=0;" edge="1" parent="1" source="b3AIAaytcUliQ4qnKOfz-1" target="b3AIAaytcUliQ4qnKOfz-4">
          <mxGeometry width="50" height="50" relative="1" as="geometry">
            <mxPoint x="170" y="330" as="sourcePoint" />
            <mxPoint x="220" y="330" as="targetPoint" />
          </mxGeometry>
        </mxCell>
        <mxCell id="b3AIAaytcUliQ4qnKOfz-6" value="Basic Auth" style="text;html=1;align=center;verticalAlign=middle;resizable=0;points=[];autosize=1;strokeColor=none;fillColor=none;" vertex="1" parent="1">
          <mxGeometry x="80" y="330" width="80" height="30" as="geometry" />
        </mxCell>
        <mxCell id="b3AIAaytcUliQ4qnKOfz-7" value="" style="endArrow=classic;html=1;rounded=0;entryX=0.675;entryY=0.963;entryDx=0;entryDy=0;entryPerimeter=0;exitX=0.917;exitY=0.763;exitDx=0;exitDy=0;exitPerimeter=0;" edge="1" parent="1" source="b3AIAaytcUliQ4qnKOfz-1" target="b3AIAaytcUliQ4qnKOfz-8">
          <mxGeometry width="50" height="50" relative="1" as="geometry">
            <mxPoint x="320" y="300" as="sourcePoint" />
            <mxPoint x="240" y="210" as="targetPoint" />
            <Array as="points">
              <mxPoint x="321" y="302" />
            </Array>
          </mxGeometry>
        </mxCell>
        <mxCell id="b3AIAaytcUliQ4qnKOfz-8" value="Validate the requests param" style="ellipse;whiteSpace=wrap;html=1;" vertex="1" parent="1">
          <mxGeometry x="240" y="160" width="120" height="80" as="geometry" />
        </mxCell>
        <mxCell id="b3AIAaytcUliQ4qnKOfz-9" value="" style="endArrow=classic;html=1;rounded=0;exitX=0.725;exitY=0.025;exitDx=0;exitDy=0;exitPerimeter=0;entryX=0.325;entryY=0.013;entryDx=0;entryDy=0;entryPerimeter=0;" edge="1" parent="1" target="b3AIAaytcUliQ4qnKOfz-1">
          <mxGeometry width="50" height="50" relative="1" as="geometry">
            <mxPoint x="290" y="160" as="sourcePoint" />
            <mxPoint x="150" y="230" as="targetPoint" />
            <Array as="points">
              <mxPoint x="150" y="160" />
            </Array>
          </mxGeometry>
        </mxCell>
        <mxCell id="b3AIAaytcUliQ4qnKOfz-10" value="No" style="text;html=1;align=center;verticalAlign=middle;resizable=0;points=[];autosize=1;strokeColor=none;fillColor=none;" vertex="1" parent="1">
          <mxGeometry x="170" y="130" width="40" height="30" as="geometry" />
        </mxCell>
        <mxCell id="b3AIAaytcUliQ4qnKOfz-11" value="failed validation" style="text;html=1;align=center;verticalAlign=middle;resizable=0;points=[];autosize=1;strokeColor=none;fillColor=none;" vertex="1" parent="1">
          <mxGeometry x="100" y="200" width="110" height="30" as="geometry" />
        </mxCell>
        <mxCell id="b3AIAaytcUliQ4qnKOfz-12" value="" style="endArrow=classic;html=1;rounded=0;exitX=0.725;exitY=0.025;exitDx=0;exitDy=0;exitPerimeter=0;" edge="1" parent="1">
          <mxGeometry width="50" height="50" relative="1" as="geometry">
            <mxPoint x="360" y="194" as="sourcePoint" />
            <mxPoint x="410" y="194" as="targetPoint" />
          </mxGeometry>
        </mxCell>
        <mxCell id="b3AIAaytcUliQ4qnKOfz-13" value="yes" style="text;html=1;align=center;verticalAlign=middle;resizable=0;points=[];autosize=1;strokeColor=none;fillColor=none;" vertex="1" parent="1">
          <mxGeometry x="360" y="158" width="40" height="30" as="geometry" />
        </mxCell>
        <mxCell id="b3AIAaytcUliQ4qnKOfz-16" value="&lt;div style=&quot;text-align: justify;&quot;&gt;&lt;span style=&quot;background-color: initial;&quot;&gt;&lt;font style=&quot;font-size: 12px;&quot;&gt;Conversion into Target unit , if unit not provided then the closest unit that can be&amp;nbsp; represented for easy comprehension&lt;/font&gt;&lt;/span&gt;&lt;/div&gt;" style="ellipse;whiteSpace=wrap;html=1;align=right;" vertex="1" parent="1">
          <mxGeometry x="600" y="120" width="240" height="140" as="geometry" />
        </mxCell>
        <mxCell id="c188HrAiZuIj-6h9vWM7-2" value="" style="endArrow=classic;html=1;rounded=0;exitX=0.5;exitY=1;exitDx=0;exitDy=0;" edge="1" parent="1" source="b3AIAaytcUliQ4qnKOfz-16">
          <mxGeometry width="50" height="50" relative="1" as="geometry">
            <mxPoint x="640" y="321" as="sourcePoint" />
            <mxPoint x="720" y="370" as="targetPoint" />
            <Array as="points">
              <mxPoint x="720" y="330" />
            </Array>
          </mxGeometry>
        </mxCell>
        <mxCell id="c188HrAiZuIj-6h9vWM7-3" value="add 1 bit coin for successful request&lt;br&gt;make entry in db" style="ellipse;whiteSpace=wrap;html=1;" vertex="1" parent="1">
          <mxGeometry x="660" y="370" width="120" height="85" as="geometry" />
        </mxCell>
        <mxCell id="lj5fhIabV5IwhSBRjd6Y-2" value="Assumptions:&lt;br&gt;1.Units of length only&lt;br&gt;" style="text;html=1;align=center;verticalAlign=middle;resizable=0;points=[];autosize=1;strokeColor=none;fillColor=none;" vertex="1" parent="1">
          <mxGeometry x="340" y="400" width="140" height="40" as="geometry" />
        </mxCell>
        <mxCell id="lj5fhIabV5IwhSBRjd6Y-3" value="" style="group" vertex="1" connectable="0" parent="1">
          <mxGeometry x="340" y="330" width="220" height="60" as="geometry" />
        </mxCell>
        <mxCell id="c188HrAiZuIj-6h9vWM7-4" value="Q, What could be a failed scenario ?" style="text;html=1;align=center;verticalAlign=middle;resizable=0;points=[];autosize=1;strokeColor=none;fillColor=none;" vertex="1" parent="lj5fhIabV5IwhSBRjd6Y-3">
          <mxGeometry width="220" height="30" as="geometry" />
        </mxCell>
        <mxCell id="c188HrAiZuIj-6h9vWM7-5" value="1. if time exceeds 50 ms?" style="text;html=1;align=center;verticalAlign=middle;resizable=0;points=[];autosize=1;strokeColor=none;fillColor=none;" vertex="1" parent="lj5fhIabV5IwhSBRjd6Y-3">
          <mxGeometry x="10" y="18" width="160" height="30" as="geometry" />
        </mxCell>
        <mxCell id="lj5fhIabV5IwhSBRjd6Y-1" value="2. if an exception occurs?" style="text;html=1;align=center;verticalAlign=middle;resizable=0;points=[];autosize=1;strokeColor=none;fillColor=none;" vertex="1" parent="lj5fhIabV5IwhSBRjd6Y-3">
          <mxGeometry x="10" y="30" width="160" height="30" as="geometry" />
        </mxCell>
        <mxCell id="G1zmg-Ab916zZpHDVuY2-1" value="Determine the unit which has been provided.&lt;br&gt;length&lt;br&gt;time&lt;br&gt;Volume&lt;br&gt;mass&lt;br&gt;" style="whiteSpace=wrap;html=1;aspect=fixed;" vertex="1" parent="1">
          <mxGeometry x="410" y="140" width="110" height="110" as="geometry" />
        </mxCell>
        <mxCell id="G1zmg-Ab916zZpHDVuY2-2" value="" style="endArrow=classic;html=1;rounded=0;exitX=1;exitY=0.5;exitDx=0;exitDy=0;entryX=0.004;entryY=0.557;entryDx=0;entryDy=0;entryPerimeter=0;" edge="1" parent="1" target="b3AIAaytcUliQ4qnKOfz-16">
          <mxGeometry width="50" height="50" relative="1" as="geometry">
            <mxPoint x="520" y="197.5" as="sourcePoint" />
            <mxPoint x="600" y="202.5" as="targetPoint" />
          </mxGeometry>
        </mxCell>
        <mxCell id="G1zmg-Ab916zZpHDVuY2-4" value="convert" style="text;html=1;align=center;verticalAlign=middle;resizable=0;points=[];autosize=1;strokeColor=none;fillColor=none;" vertex="1" parent="1">
          <mxGeometry x="530" y="188" width="60" height="30" as="geometry" />
        </mxCell>
        <mxCell id="G1zmg-Ab916zZpHDVuY2-7" value="unsupported unit" style="text;html=1;align=center;verticalAlign=middle;resizable=0;points=[];autosize=1;strokeColor=none;fillColor=none;" vertex="1" parent="1">
          <mxGeometry x="420" y="60" width="110" height="30" as="geometry" />
        </mxCell>
        <mxCell id="G1zmg-Ab916zZpHDVuY2-8" value="validate" style="text;html=1;align=center;verticalAlign=middle;resizable=0;points=[];autosize=1;strokeColor=none;fillColor=none;" vertex="1" parent="1">
          <mxGeometry x="245" y="280" width="60" height="30" as="geometry" />
        </mxCell>
        <mxCell id="G1zmg-Ab916zZpHDVuY2-12" value="" style="endArrow=classic;html=1;rounded=0;exitX=0.545;exitY=0;exitDx=0;exitDy=0;exitPerimeter=0;" edge="1" parent="1" source="G1zmg-Ab916zZpHDVuY2-1">
          <mxGeometry width="50" height="50" relative="1" as="geometry">
            <mxPoint x="470" y="140" as="sourcePoint" />
            <mxPoint x="150" y="160" as="targetPoint" />
            <Array as="points">
              <mxPoint x="470" y="50" />
              <mxPoint x="150" y="50" />
            </Array>
          </mxGeometry>
        </mxCell>
        <mxCell id="B6Xmzbsv_8YdJbKLBwuD-1" value="" style="endArrow=classic;html=1;rounded=0;" edge="1" parent="1">
          <mxGeometry width="50" height="50" relative="1" as="geometry">
            <mxPoint x="720" y="120" as="sourcePoint" />
            <mxPoint x="719.5" y="60" as="targetPoint" />
            <Array as="points" />
          </mxGeometry>
        </mxCell>
        <mxCell id="B6Xmzbsv_8YdJbKLBwuD-2" value="deduct 1 bit coin for all exceptions&lt;br&gt;make entry in db" style="ellipse;whiteSpace=wrap;html=1;" vertex="1" parent="1">
          <mxGeometry x="650" y="-25" width="120" height="85" as="geometry" />
        </mxCell>
        <mxCell id="B6Xmzbsv_8YdJbKLBwuD-3" value="successful" style="text;html=1;align=center;verticalAlign=middle;resizable=0;points=[];autosize=1;strokeColor=none;fillColor=none;" vertex="1" parent="1">
          <mxGeometry x="650" y="308" width="80" height="30" as="geometry" />
        </mxCell>
        <mxCell id="B6Xmzbsv_8YdJbKLBwuD-4" value="unsuccessful" style="text;html=1;align=center;verticalAlign=middle;resizable=0;points=[];autosize=1;strokeColor=none;fillColor=none;" vertex="1" parent="1">
          <mxGeometry x="630" y="78" width="90" height="30" as="geometry" />
        </mxCell>
      </root>
    </mxGraphModel>
  </diagram>
  <diagram id="aCOKCKjYOSakgeWjAQzv" name="Page-2">
    <mxGraphModel dx="880" dy="532" grid="1" gridSize="10" guides="1" tooltips="1" connect="1" arrows="1" fold="1" page="1" pageScale="1" pageWidth="850" pageHeight="1100" math="0" shadow="0">
      <root>
        <mxCell id="0" />
        <mxCell id="1" parent="0" />
        <mxCell id="IXTnuQfZ6xgIlUwsSyPu-1" value="User" style="swimlane;whiteSpace=wrap;html=1;" vertex="1" parent="1">
          <mxGeometry x="270" y="180" width="110" height="110" as="geometry" />
        </mxCell>
        <mxCell id="IXTnuQfZ6xgIlUwsSyPu-3" value="String Details" style="text;html=1;align=center;verticalAlign=middle;resizable=0;points=[];autosize=1;strokeColor=none;fillColor=none;" vertex="1" parent="IXTnuQfZ6xgIlUwsSyPu-1">
          <mxGeometry y="48" width="90" height="30" as="geometry" />
        </mxCell>
        <mxCell id="IXTnuQfZ6xgIlUwsSyPu-6" value="Long userId" style="text;html=1;align=center;verticalAlign=middle;resizable=0;points=[];autosize=1;strokeColor=none;fillColor=none;" vertex="1" parent="IXTnuQfZ6xgIlUwsSyPu-1">
          <mxGeometry y="80" width="90" height="30" as="geometry" />
        </mxCell>
        <mxCell id="IXTnuQfZ6xgIlUwsSyPu-2" value="String name" style="text;html=1;align=center;verticalAlign=middle;resizable=0;points=[];autosize=1;strokeColor=none;fillColor=none;" vertex="1" parent="IXTnuQfZ6xgIlUwsSyPu-1">
          <mxGeometry x="-7" y="18" width="90" height="30" as="geometry" />
        </mxCell>
        <mxCell id="hJZ3AKhVzzM18QTyrfeM-3" value="makes" style="text;html=1;align=center;verticalAlign=middle;resizable=0;points=[];autosize=1;strokeColor=none;fillColor=none;" vertex="1" parent="1">
          <mxGeometry x="120" y="230" width="60" height="30" as="geometry" />
        </mxCell>
        <mxCell id="hJZ3AKhVzzM18QTyrfeM-4" value="" style="endArrow=classic;html=1;rounded=0;exitX=0.421;exitY=-0.031;exitDx=0;exitDy=0;exitPerimeter=0;entryX=0.421;entryY=-0.031;entryDx=0;entryDy=0;entryPerimeter=0;" edge="1" parent="1" target="IXTnuQfZ6xgIlUwsSyPu-5">
          <mxGeometry width="50" height="50" relative="1" as="geometry">
            <mxPoint x="270" y="230" as="sourcePoint" />
            <mxPoint x="170" y="320" as="targetPoint" />
            <Array as="points">
              <mxPoint x="170" y="230" />
            </Array>
          </mxGeometry>
        </mxCell>
        <mxCell id="hJZ3AKhVzzM18QTyrfeM-6" value="" style="group" vertex="1" connectable="0" parent="1">
          <mxGeometry x="110" y="330" width="140" height="130" as="geometry" />
        </mxCell>
        <mxCell id="IXTnuQfZ6xgIlUwsSyPu-5" value="Requests" style="swimlane;whiteSpace=wrap;html=1;" vertex="1" parent="hJZ3AKhVzzM18QTyrfeM-6">
          <mxGeometry width="140" height="130" as="geometry" />
        </mxCell>
        <mxCell id="IXTnuQfZ6xgIlUwsSyPu-9" value="Invoice invoiceNo" style="text;html=1;align=center;verticalAlign=middle;resizable=0;points=[];autosize=1;strokeColor=none;fillColor=none;" vertex="1" parent="IXTnuQfZ6xgIlUwsSyPu-5">
          <mxGeometry x="-5" y="70" width="120" height="30" as="geometry" />
        </mxCell>
        <mxCell id="hJZ3AKhVzzM18QTyrfeM-5" value="Long total" style="text;html=1;align=center;verticalAlign=middle;resizable=0;points=[];autosize=1;strokeColor=none;fillColor=none;" vertex="1" parent="IXTnuQfZ6xgIlUwsSyPu-5">
          <mxGeometry x="-5" y="90" width="80" height="30" as="geometry" />
        </mxCell>
        <mxCell id="IXTnuQfZ6xgIlUwsSyPu-8" value="Long userId" style="text;html=1;align=center;verticalAlign=middle;resizable=0;points=[];autosize=1;strokeColor=none;fillColor=none;" vertex="1" parent="IXTnuQfZ6xgIlUwsSyPu-5">
          <mxGeometry x="-5" y="50" width="90" height="30" as="geometry" />
        </mxCell>
        <mxCell id="IXTnuQfZ6xgIlUwsSyPu-7" value="Long requestId" style="text;html=1;align=center;verticalAlign=middle;resizable=0;points=[];autosize=1;strokeColor=none;fillColor=none;" vertex="1" parent="hJZ3AKhVzzM18QTyrfeM-6">
          <mxGeometry y="28" width="100" height="30" as="geometry" />
        </mxCell>
        <mxCell id="sEJJWN09g-QydtPK8mbs-1" value="Invoice" style="swimlane;whiteSpace=wrap;html=1;" vertex="1" parent="1">
          <mxGeometry x="320" y="360" width="150" height="150" as="geometry" />
        </mxCell>
        <mxCell id="sEJJWN09g-QydtPK8mbs-2" value="Long invoiceNo&lt;br&gt;" style="text;html=1;align=center;verticalAlign=middle;resizable=0;points=[];autosize=1;strokeColor=none;fillColor=none;" vertex="1" parent="sEJJWN09g-QydtPK8mbs-1">
          <mxGeometry x="-5" y="28" width="110" height="30" as="geometry" />
        </mxCell>
        <mxCell id="sEJJWN09g-QydtPK8mbs-3" value="Long debits&lt;br&gt;Long credits" style="text;html=1;align=center;verticalAlign=middle;resizable=0;points=[];autosize=1;strokeColor=none;fillColor=none;" vertex="1" parent="sEJJWN09g-QydtPK8mbs-1">
          <mxGeometry x="-5" y="50" width="90" height="40" as="geometry" />
        </mxCell>
        <mxCell id="sEJJWN09g-QydtPK8mbs-6" value="" style="endArrow=classic;html=1;rounded=0;entryX=0.421;entryY=-0.031;entryDx=0;entryDy=0;entryPerimeter=0;" edge="1" parent="1">
          <mxGeometry width="50" height="50" relative="1" as="geometry">
            <mxPoint x="220" y="460" as="sourcePoint" />
            <mxPoint x="320" y="502" as="targetPoint" />
            <Array as="points">
              <mxPoint x="220" y="502" />
            </Array>
          </mxGeometry>
        </mxCell>
        <mxCell id="sEJJWN09g-QydtPK8mbs-7" value="generates&lt;br&gt;" style="text;html=1;align=center;verticalAlign=middle;resizable=0;points=[];autosize=1;strokeColor=none;fillColor=none;" vertex="1" parent="1">
          <mxGeometry x="190" y="498" width="80" height="30" as="geometry" />
        </mxCell>
        <mxCell id="3J5gZXJqJYmnxhREiJwj-2" value="ResponseDTO" style="swimlane;whiteSpace=wrap;html=1;" vertex="1" parent="1">
          <mxGeometry x="560" y="210" width="160" height="140" as="geometry" />
        </mxCell>
        <mxCell id="3J5gZXJqJYmnxhREiJwj-3" value="Request requestDetails" style="text;html=1;align=center;verticalAlign=middle;resizable=0;points=[];autosize=1;strokeColor=none;fillColor=none;" vertex="1" parent="3J5gZXJqJYmnxhREiJwj-2">
          <mxGeometry y="40" width="150" height="30" as="geometry" />
        </mxCell>
        <mxCell id="3J5gZXJqJYmnxhREiJwj-4" value="Long enteredValue&lt;br&gt;String sourceUnit&lt;br&gt;String targetUnit&lt;br&gt;&lt;br&gt;" style="text;html=1;align=center;verticalAlign=middle;resizable=0;points=[];autosize=1;strokeColor=none;fillColor=none;" vertex="1" parent="3J5gZXJqJYmnxhREiJwj-2">
          <mxGeometry y="65" width="120" height="70" as="geometry" />
        </mxCell>
        <mxCell id="3J5gZXJqJYmnxhREiJwj-5" value="" style="endArrow=none;dashed=1;html=1;dashPattern=1 3;strokeWidth=2;rounded=0;" edge="1" parent="1">
          <mxGeometry width="50" height="50" relative="1" as="geometry">
            <mxPoint x="530" y="660" as="sourcePoint" />
            <mxPoint x="530" y="160" as="targetPoint" />
          </mxGeometry>
        </mxCell>
      </root>
    </mxGraphModel>
  </diagram>
</mxfile>
